<?xml version="1.0" encoding="UTF-8" standalone="no"?>
<svg
   xmlns:dc="http://purl.org/dc/elements/1.1/"
   xmlns:cc="http://creativecommons.org/ns#"
   xmlns:rdf="http://www.w3.org/1999/02/22-rdf-syntax-ns#"
   xmlns:svg="http://www.w3.org/2000/svg"
   xmlns="http://www.w3.org/2000/svg"
   xmlns:sodipodi="http://sodipodi.sourceforge.net/DTD/sodipodi-0.dtd"
   xmlns:inkscape="http://www.inkscape.org/namespaces/inkscape"
   width="45.930344mm"
   height="48.702812mm"
   viewBox="0 0 45.930343 48.702812"
   version="1.1"
   id="svg8"
   inkscape:version="1.0.2 (1.0.2+r75+1)"
   sodipodi:docname="logo-4i.svg">
  <defs
     id="defs2">
    <clipPath
       clipPathUnits="userSpaceOnUse"
       id="clipPath58">
      <path
         d="M 0,371.27 H 841.89 V 0 H 0 Z"
         id="path60"
         inkscape:connector-curvature="0" />
    </clipPath>
  </defs>
  <sodipodi:namedview
     id="base"
     pagecolor="#ffffff"
     bordercolor="#666666"
     borderopacity="1.0"
     inkscape:pageopacity="0.0"
     inkscape:pageshadow="2"
     inkscape:zoom="0.98994949"
     inkscape:cx="338.38833"
     inkscape:cy="64.010425"
     inkscape:document-units="mm"
     inkscape:current-layer="layer1"
     inkscape:document-rotation="0"
     showgrid="false"
     inkscape:window-width="1366"
     inkscape:window-height="704"
     inkscape:window-x="0"
     inkscape:window-y="27"
     inkscape:window-maximized="1" />
  <metadata
     id="metadata5">
    <rdf:RDF>
      <cc:Work
         rdf:about="">
        <dc:format>image/svg+xml</dc:format>
        <dc:type
           rdf:resource="http://purl.org/dc/dcmitype/StillImage" />
        <dc:title></dc:title>
      </cc:Work>
    </rdf:RDF>
  </metadata>
  <g
     inkscape:label="Layer 1"
     inkscape:groupmode="layer"
     id="layer1"
     transform="translate(2.3782245,-123.81526)">
    <g
       transform="matrix(0.33072917,0,0,-0.33072917,-1.0992286,135.00498)"
       id="g12">
      <path
         inkscape:connector-curvature="0"
         id="path14"
         style="fill:#0e51a1;fill-opacity:1;fill-rule:nonzero;stroke:none"
         d="M 0,0 35.488,-18.237 62.062,-3.764 62.1,33.827 Z" />
    </g>
    <g
       transform="matrix(0.33072917,0,0,-0.33072917,21.731105,123.81526)"
       id="g16">
      <path
         inkscape:connector-curvature="0"
         id="path18"
         style="fill:#0e51a1;fill-opacity:1;fill-rule:nonzero;stroke:none"
         d="M 0,0 62.112,-33.833 26.623,-52.07 -0.037,-37.6 Z" />
    </g>
    <g
       transform="matrix(0.33072917,0,0,-0.33072917,-2.3782245,136.91881)"
       id="g20">
      <path
         inkscape:connector-curvature="0"
         id="path22"
         style="fill:#0e51a1;fill-opacity:1;fill-rule:nonzero;stroke:none"
         d="M 0,0 34.7,-17.769 V -49.007 L 0,-67.925 Z" />
    </g>
    <g
       transform="matrix(0.33072917,0,0,-0.33072917,13.078536,142.29071)"
       id="g24">
      <path
         inkscape:connector-curvature="0"
         id="path26"
         style="fill:#0e51a1;fill-opacity:1;fill-rule:nonzero;stroke:none"
         d="M 0,0 22.657,12.341 45.358,-0.024 22.702,-11.667 Z" />
    </g>
    <g
       transform="matrix(0.33072917,0,0,-0.33072917,11.390329,143.97343)"
       id="g28">
      <path
         inkscape:connector-curvature="0"
         id="path30"
         style="fill:#0e51a1;fill-opacity:1;fill-rule:nonzero;stroke:none"
         d="M 0,0 24.342,-12.509 V -40.935 L 0,-27.676 Z" />
    </g>
    <g
       transform="matrix(0.33072917,0,0,-0.33072917,32.045721,142.81105)"
       id="g32">
      <path
         inkscape:connector-curvature="0"
         id="path34"
         style="fill:#0e51a1;fill-opacity:1;fill-rule:nonzero;stroke:none"
         d="M 0,0 34.791,17.878 V -50.115 L 0,-31.19 Z" />
    </g>
    <g
       transform="matrix(0.33072917,0,0,-0.33072917,21.733023,148.11062)"
       id="g36">
      <path
         inkscape:connector-curvature="0"
         id="path38"
         style="fill:#0e51a1;fill-opacity:1;fill-rule:nonzero;stroke:none"
         d="M 0,0 24.252,12.462 V -15.167 L 0,-28.376 Z" />
    </g>
    <g
       transform="matrix(0.33072917,0,0,-0.33072917,21.733023,160.07921)"
       id="g40">
      <path
         inkscape:connector-curvature="0"
         id="path42"
         style="fill:#0e51a1;fill-opacity:1;fill-rule:nonzero;stroke:none"
         d="M 0,0 27.718,15.098 62.264,-3.694 0,-37.61 Z" />
    </g>
    <g
       transform="matrix(0.33072917,0,0,-0.33072917,-1.1531706,161.29974)"
       id="g44">
      <path
         inkscape:connector-curvature="0"
         id="path46"
         style="fill:#0e51a1;fill-opacity:1;fill-rule:nonzero;stroke:none"
         d="M 0,0 62.269,-33.92 62.223,3.667 34.462,18.787 Z" />
    </g>
  </g>
</svg>
